<svg xmlns="http://www.w3.org/2000/svg" xmlns:xlink="http://www.w3.org/1999/xlink" viewBox="0 0 250 100"><defs><linearGradient id="linear-gradient" x1="81.33" y1="49.37" x2="124.92" y2="49.37" gradientUnits="userSpaceOnUse"><stop offset="0" stop-color="#006eb8"/><stop offset="0.04" stop-color="#0471b9" stop-opacity="0.99"/><stop offset="0.68" stop-color="#39a1cd" stop-opacity="0.85"/><stop offset="1" stop-color="#4db3d4" stop-opacity="0.8"/></linearGradient></defs><title>svglogo2</title><g id="Isolation_Mode" data-name="Isolation Mode"><rect y="86" width="244.31" height="4" fill="#231f20"/><rect x="246" y="86" width="4" height="4" fill="#231f20"/><path d="M153.31,59.22c0,1.46-.07,2.94-.1,4.43s0,3,0,4.4.07,2.73.17,3.88a20.64,20.64,0,0,0,.4,2.87c.17.76.4,1.21.71,1.35a2.25,2.25,0,0,1-.71,1,6.28,6.28,0,0,1-1.24.8,9.78,9.78,0,0,1-1.41.55,6.48,6.48,0,0,1-1.26.25,2.4,2.4,0,0,1-1.87-.57,4.49,4.49,0,0,1-1.17-1.84,11,11,0,0,1-.61-2.8A32.37,32.37,0,0,1,146,70c0-1.27.05-2.58.15-3.95s.21-2.72.36-4.07c.05-.68.13-1.55.25-2.6a29.71,29.71,0,0,0,.17-3.06,10.36,10.36,0,0,0-.28-2.54c-.18-.7-.54-1.05-1.07-1.05a3,3,0,0,0-2.11,1.05,9.51,9.51,0,0,0-1.65,2.71,26.58,26.58,0,0,0-1.27,3.84c-.37,1.43-.68,2.91-1,4.43s-.51,3-.72,4.56-.4,2.92-.57,4.18-.33,2.36-.48,3.28a6.34,6.34,0,0,1-.53,1.88,2.75,2.75,0,0,1-.76,1,5.41,5.41,0,0,1-1.25.82,8.27,8.27,0,0,1-1.43.55,4.84,4.84,0,0,1-1.29.21A2.42,2.42,0,0,1,130.38,80a9.78,9.78,0,0,1-1.22-3.44,29.87,29.87,0,0,1-.45-5c0-1.88,0-3.84.11-5.87s.23-4,.4-6.08.32-3.9.47-5.61.23-3.22.27-4.5a10.77,10.77,0,0,0-.15-2.72,9.15,9.15,0,0,1,4,.08,6,6,0,0,1,1.4.61,4.09,4.09,0,0,1,1.18,1.1,5,5,0,0,1,.78,1.75,7.59,7.59,0,0,1,.15,2.49c-.09,1.1-.18,2.36-.28,3.78s-.19,2.9-.27,4.44-.16,3.09-.21,4.66-.1,3.09-.13,4.52a67.74,67.74,0,0,1,2.07-8.57,38.69,38.69,0,0,1,2.34-5.81,15.51,15.51,0,0,1,2.45-3.57,9.47,9.47,0,0,1,2.37-1.83,5.78,5.78,0,0,1,2.1-.66,9.58,9.58,0,0,1,1.7,0,.86.86,0,0,0,.27.05.86.86,0,0,1,.28,0h.08a5.05,5.05,0,0,1,1.15.42,3.76,3.76,0,0,1,1.1.82,4.24,4.24,0,0,1,.79,1.38,6.74,6.74,0,0,1,.36,2.11v.63C153.41,56.43,153.36,57.76,153.31,59.22Z" fill="#231f20"/><path d="M170.65,54.11l-2.9-.38c-.88-.11-1.69-.2-2.42-.25-.09,1.15-.18,2.44-.28,3.86s-.19,2.91-.27,4.46l1.16.25q.62.12,1.29.21a3,3,0,0,0,.42.06l.42.07.4.06.4.06a.41.41,0,0,0,.19.05.38.38,0,0,1,.19,0,1.21,1.21,0,0,1,.38,0,1.08,1.08,0,0,1,.34,0h.34l.15,0a.33.33,0,0,0,.15,0h1l.17,1.68h-.13a.14.14,0,0,0-.12,0h-1.36a1,1,0,0,1-.33,0h-.38a.65.65,0,0,1-.19,0l-.19,0a1.51,1.51,0,0,1-.43,0l-.42,0-.42-.06a2.12,2.12,0,0,0-.44,0,2.15,2.15,0,0,1-.45,0L165.77,64l-1.12-.17c-.08,1.78-.14,3.51-.17,5.2s0,3.21,0,4.58a30,30,0,0,0,.28,3.4c.14.9.35,1.43.63,1.6a2.64,2.64,0,0,1-.78,1,5.76,5.76,0,0,1-1.27.82,8.27,8.27,0,0,1-1.43.55,4.9,4.9,0,0,1-1.29.21,2.53,2.53,0,0,1-2.37-1.52,12.24,12.24,0,0,1-1.18-4.14,40.47,40.47,0,0,1-.27-5.85q.06-3.27.27-6.67t.51-6.59c.2-2.12.34-4,.42-5.59a3.33,3.33,0,0,1,1.18-2.68A6.27,6.27,0,0,1,162,47a15,15,0,0,1,3.68-.19c1.33.09,2.61.21,3.82.36l3.21.42a5.83,5.83,0,0,0,1.86.07,11.47,11.47,0,0,1-.05,3.54,6.21,6.21,0,0,1-.38,1.25,3.05,3.05,0,0,1-.71,1,2.82,2.82,0,0,1-1.15.61A4.15,4.15,0,0,1,170.65,54.11Z" fill="#231f20"/><path d="M210.18,80.79a2.38,2.38,0,0,1-.71.24,4.49,4.49,0,0,1-.71.07,2,2,0,0,1-.44,0h0A1.9,1.9,0,0,1,206.64,80a10.72,10.72,0,0,1-1-3.14,37.22,37.22,0,0,1-.52-4.44C205,70.71,205,69,205,67.26s.06-3.48.13-5.18.15-3.22.24-4.59.17-2.48.26-3.36.13-1.39.13-1.53c.08-1,.17-1.8.26-2.56a11.46,11.46,0,0,1,.36-1.94,2.81,2.81,0,0,1,.65-1.21,1.42,1.42,0,0,1,1.14-.37l.95.13a5,5,0,0,1,2,.91,7.52,7.52,0,0,1,1.25,1.07,10.79,10.79,0,0,1,1,1.34,12.68,12.68,0,0,1,1.51,4.53,16.14,16.14,0,0,1,.09,4.37,10.57,10.57,0,0,1-1.21,3.77,11.75,11.75,0,0,1-.93,1.43,11.34,11.34,0,0,1-1,1.12c-.06,1.58-.1,3.09-.13,4.52s0,2.75,0,3.93a12.47,12.47,0,0,0,.15,1.57,1.71,1.71,0,0,0,.33.82.53.53,0,0,0,.6.11,5,5,0,0,0,1-.56,13.88,13.88,0,0,0,2.67-2.18,24,24,0,0,0,2-2.35,21,21,0,0,0,1.64-2.59l1.21.48a5.52,5.52,0,0,1-.52,1c-.32.53-.74,1.19-1.27,2s-1.15,1.61-1.86,2.5A30.62,30.62,0,0,1,215.46,77a26.17,26.17,0,0,1-2.57,2.29A9.51,9.51,0,0,1,210.18,80.79ZM212,63.16a11.52,11.52,0,0,0,1.1-2,9.86,9.86,0,0,0,.71-2.63c0-.06,0-.29,0-.71a13.24,13.24,0,0,0-.06-1.47,13.71,13.71,0,0,0-.33-1.81,5,5,0,0,0-.79-1.74c-.12,1.43-.23,3-.35,4.82S212.08,61.27,212,63.16Z" fill="#231f20"/><path d="M244.32,69.15c-.06.18-.19.54-.41,1.08a19.54,19.54,0,0,1-.91,1.92,15.6,15.6,0,0,1-1.46,2.26,11.65,11.65,0,0,1-2.13,2.14,10.63,10.63,0,0,1-2.91,1.55,9.33,9.33,0,0,1-3.73.45,3.18,3.18,0,0,1-2-.69,3.24,3.24,0,0,1-1-1.55,7.5,7.5,0,0,1-.26-2.15,18.64,18.64,0,0,1,.24-2.51,7,7,0,0,1-1.1,1.43,8.14,8.14,0,0,1-1.61,1.29,6.85,6.85,0,0,1-2,.82,4.51,4.51,0,0,1-2.13,0,3.25,3.25,0,0,1-2.26-1.53,3.93,3.93,0,0,1-.43-2.52,6.93,6.93,0,0,1,3.47-4.87,9.09,9.09,0,0,1,2.11-.82,8.27,8.27,0,0,1,2-.28,11.17,11.17,0,0,1,1.68.06,8.42,8.42,0,0,1,1.23.22c.14-1.21.27-2.5.39-3.86s.21-2.72.28-4.05.13-2.63.17-3.86.07-2.34.07-3.3V48a6.8,6.8,0,0,0-.05-1.1,9.89,9.89,0,0,1,3.71.56,5.09,5.09,0,0,1,1.29.71,4.47,4.47,0,0,1,1.06,1.14,4.76,4.76,0,0,1,.65,1.66,7.35,7.35,0,0,1,0,2.31c-.17,1.27-.38,2.71-.61,4.33s-.44,3.27-.64,4.94-.37,3.27-.5,4.83a24.4,24.4,0,0,0-.06,4,4.83,4.83,0,0,0,.62,2.35c.33.48.84.48,1.53,0a12.5,12.5,0,0,0,2.16-1.78,18.23,18.23,0,0,0,1.42-1.71,9.87,9.87,0,0,0,1-1.81Zm-19.44,1.38q-.09,1.17.54,1.47a1.72,1.72,0,0,0,1.53-.15,6.57,6.57,0,0,0,1.87-1.55,8.78,8.78,0,0,0,1.58-2.7l-1.36,0a6.46,6.46,0,0,0-1.77.31,4.57,4.57,0,0,0-1.6.88A2.37,2.37,0,0,0,224.88,70.53Z" fill="#231f20"/><path d="M201.91,60.62,189.29,48a4.67,4.67,0,0,0-6.58,0l-5.93,5.93v20l5.93,5.93a4.65,4.65,0,0,0,6.58,0L201.91,67.2A4.65,4.65,0,0,0,201.91,60.62Z" fill="#aed7a9" stroke="#231f20" stroke-miterlimit="10" stroke-width="0.25"/><path d="M183.71,61.81a4.48,4.48,0,0,1,.39,6.31l-5.24,7.68c-.33-.36-1.62-1.61-2-2C179.11,69.82,181.5,65.83,183.71,61.81Z" fill="#6c966c"/><path d="M183.48,60.63a4.62,4.62,0,0,1,0,6.56l-6.69,6.67V54Z" fill="#fffffa" stroke="#231f20" stroke-miterlimit="10" stroke-width="0.15"/><path d="M124.92,28.67V59.45h0a21.75,21.75,0,0,1-15,20.7,21.13,21.13,0,0,1-6.78,1.1,21.78,21.78,0,0,1-21.78-21.8V40.9L107.18,21a15.37,15.37,0,0,1,2.34-1.7,14.08,14.08,0,0,1,3-1.31,9.75,9.75,0,0,1,7,.31,9.36,9.36,0,0,1,4.21,4.34,12.51,12.51,0,0,1,1.08,4.2,13.12,13.12,0,0,1,0,1.81Z" fill="url(#linear-gradient)"/><path d="M124.89,59.45a21.75,21.75,0,0,1-15,20.7,21.13,21.13,0,0,1-6.78,1.1,21.78,21.78,0,0,1-21.78-21.8" fill="none" stroke="#231f20" stroke-miterlimit="10" stroke-width="0.25"/><line x1="124.92" y1="28.67" x2="124.92" y2="59.45" fill="none" stroke="#231f20" stroke-miterlimit="10" stroke-width="0.25"/><line x1="81.33" y1="59.45" x2="81.33" y2="40.9" fill="none" stroke="#231f20" stroke-miterlimit="10" stroke-width="0.25"/><line x1="107.18" y1="21.02" x2="81.33" y2="40.9" fill="none" stroke="#231f20" stroke-miterlimit="10" stroke-width="0.25"/><path d="M107.18,21a15.37,15.37,0,0,1,2.34-1.7,14.08,14.08,0,0,1,3-1.31,9.75,9.75,0,0,1,7,.31,9.36,9.36,0,0,1,4.21,4.34,12.51,12.51,0,0,1,1.08,4.2,13.12,13.12,0,0,1,0,1.81" fill="none" stroke="#231f20" stroke-miterlimit="10" stroke-width="0.25"/><path d="M103.26,81.25H4.45A1.56,1.56,0,0,1,4,81.16a4.18,4.18,0,0,1-.57-.33A8,8,0,0,1,1,77.37,8.7,8.7,0,0,1,.32,75a9.08,9.08,0,0,1,.42-4,8.73,8.73,0,0,1,3.19-4.24L63.4,21.05l0,0a15.25,15.25,0,0,1,2.4-1.66A13.52,13.52,0,0,1,68.9,18a9.88,9.88,0,0,1,7.14.31,9.39,9.39,0,0,1,4.27,4.42A12.23,12.23,0,0,1,81.41,27a13.55,13.55,0,0,1,0,1.84h0V59.46A21.8,21.8,0,0,0,103.26,81.25Z" fill="#afddf6"/><path d="M103.26,81.25A21.8,21.8,0,0,1,81.47,59.46" fill="none" stroke="#231f20" stroke-miterlimit="10" stroke-width="0.25"/><polyline points="81.47 59.46 81.47 32.34 81.47 28.88" fill="none" stroke="#231f20" stroke-miterlimit="10" stroke-width="0.25"/><polyline points="103.26 81.25 4.45 81.25 4.31 81.25" fill="none" stroke="#231f20" stroke-miterlimit="10" stroke-width="0.25"/><line x1="63.4" y1="21.05" x2="3.93" y2="66.78" fill="none" stroke="#231f20" stroke-miterlimit="10" stroke-width="0.25"/><line x1="96.01" y1="29.73" x2="96.01" y2="29.72" fill="none" stroke="#231f20" stroke-miterlimit="10" stroke-width="0.25"/><path d="M63.4,21.05l0,0a15.25,15.25,0,0,1,2.4-1.66A13.52,13.52,0,0,1,68.9,18a9.88,9.88,0,0,1,7.14.31,9.39,9.39,0,0,1,4.27,4.42A12.23,12.23,0,0,1,81.41,27a13.55,13.55,0,0,1,0,1.84" fill="none" stroke="#231f20" stroke-miterlimit="10" stroke-width="0.25"/><path d="M3.93,66.78A8.73,8.73,0,0,0,.74,71a9.08,9.08,0,0,0-.42,4A8.7,8.7,0,0,0,1,77.37a8,8,0,0,0,2.5,3.46,4.18,4.18,0,0,0,.57.33,1.56,1.56,0,0,0,.43.09" fill="none" stroke="#231f20" stroke-miterlimit="10" stroke-width="0.25"/></g></svg>